<!--?xml version="1.0" standalone="no"?-->
              <svg id="sw-js-blob-svg" viewBox="0 0 100 100" xmlns="http://www.w3.org/2000/svg" version="1.1">
                    <defs> 
                        <linearGradient id="sw-gradient" x1="0" x2="1" y1="1" y2="0">
                            <stop id="stop1" stop-color="rgba(250.195, 233.315, 255, 1)" offset="0%"></stop>
                            <stop id="stop2" stop-color="rgba(255, 214.6, 220.159, 1)" offset="100%"></stop>
                        </linearGradient>
                    </defs>
                <path fill="url(#sw-gradient)" d="M16.9,-33.8C17.6,-28.8,10.9,-15.6,9.2,-8.6C7.6,-1.6,11,-0.8,16.5,3.2C22,7.2,29.7,14.4,31.2,21.2C32.8,28,28.2,34.5,22,32.7C15.8,30.9,7.9,20.9,0.1,20.6C-7.6,20.4,-15.2,29.9,-18.7,30.2C-22.2,30.4,-21.7,21.3,-24.3,14.7C-27,8.1,-32.8,4.1,-30.2,1.5C-27.6,-1,-16.4,-2,-13.9,-8.9C-11.4,-15.7,-17.5,-28.3,-16.7,-33.2C-15.8,-38.1,-7.9,-35.2,0.1,-35.4C8.1,-35.5,16.2,-38.8,16.9,-33.8Z" width="100%" height="100%" transform="translate(50 50)" stroke-width="0" style="transition: all 0.3s ease 0s;" stroke="url(#sw-gradient)"></path>
              </svg>