<!--?xml version="1.0" standalone="no"?-->
              <svg id="sw-js-blob-svg" viewBox="0 0 100 100" xmlns="http://www.w3.org/2000/svg" version="1.1">
                    <defs> 
                        <linearGradient id="sw-gradient" x1="0" x2="1" y1="1" y2="0">
                            <stop id="stop1" stop-color="rgba(250.195, 233.315, 255, 1)" offset="0%"></stop>
                            <stop id="stop2" stop-color="rgba(255, 214.6, 220.159, 1)" offset="100%"></stop>
                        </linearGradient>
                    </defs>
                <path fill="url(#sw-gradient)" d="M20.3,-37.3C25.7,-32.1,28.8,-25.3,32.8,-18.8C36.8,-12.3,41.6,-6.2,42,0.2C42.4,6.6,38.4,13.2,34.3,19.6C30.2,25.9,26.1,31.9,20.3,34.3C14.6,36.6,7.3,35.3,0.4,34.6C-6.5,34,-13,33.9,-19.9,32.2C-26.7,30.4,-33.8,27.1,-35,21.4C-36.3,15.8,-31.5,7.9,-31.1,0.2C-30.7,-7.4,-34.6,-14.8,-33.2,-20.2C-31.8,-25.5,-25.2,-28.8,-18.8,-33.4C-12.3,-37.9,-6.2,-43.8,0.7,-45C7.5,-46.1,15,-42.5,20.3,-37.3Z" width="100%" height="100%" transform="translate(50 50)" stroke-width="0" style="transition: all 0.3s ease 0s;" stroke="url(#sw-gradient)"></path>
              </svg>